<mxfile host="Electron" agent="Mozilla/5.0 (X11; Linux x86_64) AppleWebKit/537.36 (KHTML, like Gecko) draw.io/24.7.8 Chrome/128.0.6613.36 Electron/32.0.1 Safari/537.36" version="24.7.8">
  <diagram name="Page-1" id="k3nq5IYcouEoezmb4Aft">
    <mxGraphModel dx="808" dy="479" grid="1" gridSize="10" guides="1" tooltips="1" connect="1" arrows="1" fold="1" page="1" pageScale="1" pageWidth="850" pageHeight="1100" math="1" shadow="0">
      <root>
        <mxCell id="0" />
        <mxCell id="1" parent="0" />
        <mxCell id="aXy5RAAYiLXVPQvCRL9O-9" value="" style="endArrow=none;html=1;rounded=0;strokeWidth=2;" parent="1" edge="1">
          <mxGeometry width="50" height="50" relative="1" as="geometry">
            <mxPoint x="200" y="170" as="sourcePoint" />
            <mxPoint x="200" y="130" as="targetPoint" />
          </mxGeometry>
        </mxCell>
        <mxCell id="aXy5RAAYiLXVPQvCRL9O-10" value="" style="endArrow=none;html=1;rounded=0;strokeWidth=2;" parent="1" edge="1">
          <mxGeometry width="50" height="50" relative="1" as="geometry">
            <mxPoint x="200" y="130" as="sourcePoint" />
            <mxPoint x="160" y="130" as="targetPoint" />
          </mxGeometry>
        </mxCell>
        <mxCell id="aXy5RAAYiLXVPQvCRL9O-11" value="" style="endArrow=none;html=1;rounded=0;strokeWidth=2;" parent="1" edge="1">
          <mxGeometry width="50" height="50" relative="1" as="geometry">
            <mxPoint x="240" y="170" as="sourcePoint" />
            <mxPoint x="200" y="170" as="targetPoint" />
          </mxGeometry>
        </mxCell>
        <mxCell id="aXy5RAAYiLXVPQvCRL9O-12" value="" style="endArrow=none;html=1;rounded=0;strokeWidth=2;" parent="1" edge="1">
          <mxGeometry width="50" height="50" relative="1" as="geometry">
            <mxPoint x="240" y="170" as="sourcePoint" />
            <mxPoint x="240" y="130" as="targetPoint" />
          </mxGeometry>
        </mxCell>
        <mxCell id="aXy5RAAYiLXVPQvCRL9O-13" value="" style="endArrow=none;html=1;rounded=0;strokeWidth=2;" parent="1" edge="1">
          <mxGeometry width="50" height="50" relative="1" as="geometry">
            <mxPoint x="160" y="170" as="sourcePoint" />
            <mxPoint x="160" y="130" as="targetPoint" />
          </mxGeometry>
        </mxCell>
        <mxCell id="aXy5RAAYiLXVPQvCRL9O-14" value="" style="endArrow=none;html=1;rounded=0;strokeWidth=2;" parent="1" edge="1">
          <mxGeometry width="50" height="50" relative="1" as="geometry">
            <mxPoint x="280" y="130" as="sourcePoint" />
            <mxPoint x="240" y="130" as="targetPoint" />
          </mxGeometry>
        </mxCell>
        <mxCell id="aXy5RAAYiLXVPQvCRL9O-15" value="" style="endArrow=none;html=1;rounded=0;strokeWidth=2;" parent="1" edge="1">
          <mxGeometry width="50" height="50" relative="1" as="geometry">
            <mxPoint x="160" y="170" as="sourcePoint" />
            <mxPoint x="120" y="170" as="targetPoint" />
          </mxGeometry>
        </mxCell>
        <mxCell id="aXy5RAAYiLXVPQvCRL9O-16" value="" style="endArrow=none;html=1;rounded=0;strokeWidth=2;" parent="1" edge="1">
          <mxGeometry width="50" height="50" relative="1" as="geometry">
            <mxPoint x="280" y="170" as="sourcePoint" />
            <mxPoint x="280" y="130" as="targetPoint" />
          </mxGeometry>
        </mxCell>
        <mxCell id="aXy5RAAYiLXVPQvCRL9O-17" value="" style="endArrow=none;html=1;rounded=0;strokeWidth=2;" parent="1" edge="1">
          <mxGeometry width="50" height="50" relative="1" as="geometry">
            <mxPoint x="320" y="170" as="sourcePoint" />
            <mxPoint x="280" y="170" as="targetPoint" />
          </mxGeometry>
        </mxCell>
        <mxCell id="aXy5RAAYiLXVPQvCRL9O-40" value="" style="rounded=0;whiteSpace=wrap;html=1;fillColor=none;strokeWidth=2;" parent="1" vertex="1">
          <mxGeometry x="120" y="200" width="80" height="40" as="geometry" />
        </mxCell>
        <mxCell id="aXy5RAAYiLXVPQvCRL9O-42" value="" style="rounded=0;whiteSpace=wrap;html=1;fillColor=none;strokeWidth=2;" parent="1" vertex="1">
          <mxGeometry x="200" y="200" width="80" height="40" as="geometry" />
        </mxCell>
        <mxCell id="aXy5RAAYiLXVPQvCRL9O-43" value="" style="rounded=0;whiteSpace=wrap;html=1;fillColor=none;strokeWidth=2;" parent="1" vertex="1">
          <mxGeometry x="280" y="200" width="80" height="40" as="geometry" />
        </mxCell>
        <mxCell id="aXy5RAAYiLXVPQvCRL9O-44" value="" style="rounded=0;whiteSpace=wrap;html=1;fillColor=none;strokeWidth=2;" parent="1" vertex="1">
          <mxGeometry x="360" y="200" width="80" height="40" as="geometry" />
        </mxCell>
        <mxCell id="aXy5RAAYiLXVPQvCRL9O-45" value="" style="rounded=0;whiteSpace=wrap;html=1;fillColor=none;strokeWidth=2;" parent="1" vertex="1">
          <mxGeometry x="440" y="200" width="80" height="40" as="geometry" />
        </mxCell>
        <mxCell id="aXy5RAAYiLXVPQvCRL9O-47" value="" style="rounded=0;whiteSpace=wrap;html=1;fillColor=none;strokeWidth=2;" parent="1" vertex="1">
          <mxGeometry x="520" y="200" width="80" height="40" as="geometry" />
        </mxCell>
        <mxCell id="aXy5RAAYiLXVPQvCRL9O-48" value="" style="rounded=0;whiteSpace=wrap;html=1;fillColor=none;strokeWidth=2;" parent="1" vertex="1">
          <mxGeometry x="600" y="200" width="80" height="40" as="geometry" />
        </mxCell>
        <mxCell id="aXy5RAAYiLXVPQvCRL9O-93" value="" style="rounded=0;whiteSpace=wrap;html=1;fillColor=none;strokeWidth=2;" parent="1" vertex="1">
          <mxGeometry x="680" y="200" width="80" height="40" as="geometry" />
        </mxCell>
        <mxCell id="aXy5RAAYiLXVPQvCRL9O-94" value="" style="rounded=0;whiteSpace=wrap;html=1;fillColor=none;strokeWidth=2;" parent="1" vertex="1">
          <mxGeometry x="760" y="200" width="80" height="40" as="geometry" />
        </mxCell>
        <mxCell id="aXy5RAAYiLXVPQvCRL9O-95" value="" style="rounded=0;whiteSpace=wrap;html=1;fillColor=none;strokeWidth=2;" parent="1" vertex="1">
          <mxGeometry x="840" y="200" width="80" height="40" as="geometry" />
        </mxCell>
        <mxCell id="aXy5RAAYiLXVPQvCRL9O-96" value="" style="rounded=0;whiteSpace=wrap;html=1;fillColor=none;strokeWidth=2;" parent="1" vertex="1">
          <mxGeometry x="920" y="200" width="80" height="40" as="geometry" />
        </mxCell>
        <mxCell id="aXy5RAAYiLXVPQvCRL9O-97" value="" style="rounded=0;whiteSpace=wrap;html=1;fillColor=none;strokeWidth=2;" parent="1" vertex="1">
          <mxGeometry x="1000" y="200" width="80" height="40" as="geometry" />
        </mxCell>
        <mxCell id="aXy5RAAYiLXVPQvCRL9O-98" value="" style="rounded=0;whiteSpace=wrap;html=1;fillColor=none;strokeWidth=2;" parent="1" vertex="1">
          <mxGeometry x="1080" y="200" width="80" height="40" as="geometry" />
        </mxCell>
        <mxCell id="aXy5RAAYiLXVPQvCRL9O-99" value="" style="rounded=0;whiteSpace=wrap;html=1;fillColor=none;strokeWidth=2;" parent="1" vertex="1">
          <mxGeometry x="1160" y="200" width="80" height="40" as="geometry" />
        </mxCell>
        <mxCell id="aXy5RAAYiLXVPQvCRL9O-112" value="" style="group;strokeWidth=2;" parent="1" vertex="1" connectable="0">
          <mxGeometry x="160" y="30" width="100" height="40" as="geometry" />
        </mxCell>
        <mxCell id="aXy5RAAYiLXVPQvCRL9O-28" value="" style="endArrow=none;html=1;rounded=0;strokeColor=#FF0000;strokeWidth=2;" parent="aXy5RAAYiLXVPQvCRL9O-112" edge="1">
          <mxGeometry width="50" height="50" relative="1" as="geometry">
            <mxPoint y="40" as="sourcePoint" />
            <mxPoint as="targetPoint" />
          </mxGeometry>
        </mxCell>
        <mxCell id="aXy5RAAYiLXVPQvCRL9O-29" value="" style="endArrow=none;html=1;rounded=0;strokeColor=#FF0000;strokeWidth=2;" parent="aXy5RAAYiLXVPQvCRL9O-112" edge="1">
          <mxGeometry width="50" height="50" relative="1" as="geometry">
            <mxPoint x="50" as="sourcePoint" />
            <mxPoint as="targetPoint" />
          </mxGeometry>
        </mxCell>
        <mxCell id="aXy5RAAYiLXVPQvCRL9O-30" value="" style="endArrow=none;html=1;rounded=0;strokeColor=#FF0000;startArrow=blockThin;startFill=1;strokeWidth=2;" parent="aXy5RAAYiLXVPQvCRL9O-112" edge="1">
          <mxGeometry width="50" height="50" relative="1" as="geometry">
            <mxPoint x="50" y="40" as="sourcePoint" />
            <mxPoint x="50" as="targetPoint" />
          </mxGeometry>
        </mxCell>
        <mxCell id="aXy5RAAYiLXVPQvCRL9O-31" value="" style="endArrow=none;html=1;rounded=0;strokeColor=#FF0000;strokeWidth=2;" parent="aXy5RAAYiLXVPQvCRL9O-112" edge="1">
          <mxGeometry width="50" height="50" relative="1" as="geometry">
            <mxPoint x="100" y="40" as="sourcePoint" />
            <mxPoint x="50" y="40" as="targetPoint" />
          </mxGeometry>
        </mxCell>
        <mxCell id="aXy5RAAYiLXVPQvCRL9O-32" value="" style="endArrow=none;html=1;rounded=0;strokeColor=#FF0000;strokeWidth=2;" parent="aXy5RAAYiLXVPQvCRL9O-112" edge="1">
          <mxGeometry width="50" height="50" relative="1" as="geometry">
            <mxPoint x="100" y="40" as="sourcePoint" />
            <mxPoint x="100" as="targetPoint" />
          </mxGeometry>
        </mxCell>
        <mxCell id="bMJqGPLRnC7xYN4EFSyi-4" value="" style="endArrow=baseDash;startArrow=baseDash;html=1;rounded=0;endFill=0;startFill=0;strokeWidth=2;strokeColor=#999999;dashed=1;" edge="1" parent="aXy5RAAYiLXVPQvCRL9O-112">
          <mxGeometry width="50" height="50" relative="1" as="geometry">
            <mxPoint x="80" y="19.930000000000028" as="sourcePoint" />
            <mxPoint x="100" y="19.93" as="targetPoint" />
          </mxGeometry>
        </mxCell>
        <mxCell id="bMJqGPLRnC7xYN4EFSyi-6" value="&lt;font color=&quot;#999999&quot; size=&quot;1&quot;&gt;&lt;b style=&quot;font-size: 14px;&quot;&gt;2&lt;/b&gt;&lt;/font&gt;" style="text;html=1;align=center;verticalAlign=middle;whiteSpace=wrap;rounded=0;strokeWidth=2;" vertex="1" parent="aXy5RAAYiLXVPQvCRL9O-112">
          <mxGeometry x="80" y="-6" width="20" height="30" as="geometry" />
        </mxCell>
        <mxCell id="aXy5RAAYiLXVPQvCRL9O-113" value="" style="group;strokeWidth=2;" parent="1" vertex="1" connectable="0">
          <mxGeometry x="160" y="80" width="60" height="40" as="geometry" />
        </mxCell>
        <mxCell id="aXy5RAAYiLXVPQvCRL9O-18" value="" style="endArrow=none;html=1;rounded=0;strokeColor=#67AB9F;strokeWidth=2;" parent="aXy5RAAYiLXVPQvCRL9O-113" edge="1">
          <mxGeometry width="50" height="50" relative="1" as="geometry">
            <mxPoint y="40" as="sourcePoint" />
            <mxPoint as="targetPoint" />
          </mxGeometry>
        </mxCell>
        <mxCell id="aXy5RAAYiLXVPQvCRL9O-19" value="" style="endArrow=none;html=1;rounded=0;strokeColor=#67AB9F;strokeWidth=2;" parent="aXy5RAAYiLXVPQvCRL9O-113" edge="1">
          <mxGeometry width="50" height="50" relative="1" as="geometry">
            <mxPoint x="30" as="sourcePoint" />
            <mxPoint as="targetPoint" />
          </mxGeometry>
        </mxCell>
        <mxCell id="aXy5RAAYiLXVPQvCRL9O-20" value="" style="endArrow=none;html=1;rounded=0;strokeColor=#67AB9F;startArrow=blockThin;startFill=1;strokeWidth=2;" parent="aXy5RAAYiLXVPQvCRL9O-113" edge="1">
          <mxGeometry width="50" height="50" relative="1" as="geometry">
            <mxPoint x="30" y="40" as="sourcePoint" />
            <mxPoint x="30" as="targetPoint" />
          </mxGeometry>
        </mxCell>
        <mxCell id="aXy5RAAYiLXVPQvCRL9O-21" value="" style="endArrow=none;html=1;rounded=0;strokeColor=#67AB9F;strokeWidth=2;" parent="aXy5RAAYiLXVPQvCRL9O-113" edge="1">
          <mxGeometry width="50" height="50" relative="1" as="geometry">
            <mxPoint x="60" y="40" as="sourcePoint" />
            <mxPoint x="30" y="40" as="targetPoint" />
          </mxGeometry>
        </mxCell>
        <mxCell id="aXy5RAAYiLXVPQvCRL9O-22" value="" style="endArrow=none;html=1;rounded=0;strokeColor=#67AB9F;strokeWidth=2;" parent="aXy5RAAYiLXVPQvCRL9O-113" edge="1">
          <mxGeometry width="50" height="50" relative="1" as="geometry">
            <mxPoint x="60" y="40" as="sourcePoint" />
            <mxPoint x="60" as="targetPoint" />
          </mxGeometry>
        </mxCell>
        <mxCell id="aXy5RAAYiLXVPQvCRL9O-138" value="" style="group;strokeWidth=2;" parent="1" vertex="1" connectable="0">
          <mxGeometry x="160" y="260" width="60" height="40" as="geometry" />
        </mxCell>
        <mxCell id="aXy5RAAYiLXVPQvCRL9O-139" value="" style="endArrow=none;html=1;rounded=0;strokeColor=#67AB9F;strokeWidth=2;" parent="aXy5RAAYiLXVPQvCRL9O-138" edge="1">
          <mxGeometry width="50" height="50" relative="1" as="geometry">
            <mxPoint y="40" as="sourcePoint" />
            <mxPoint as="targetPoint" />
          </mxGeometry>
        </mxCell>
        <mxCell id="aXy5RAAYiLXVPQvCRL9O-140" value="" style="endArrow=none;html=1;rounded=0;strokeColor=#67AB9F;strokeWidth=2;" parent="aXy5RAAYiLXVPQvCRL9O-138" edge="1">
          <mxGeometry width="50" height="50" relative="1" as="geometry">
            <mxPoint x="30" as="sourcePoint" />
            <mxPoint as="targetPoint" />
          </mxGeometry>
        </mxCell>
        <mxCell id="aXy5RAAYiLXVPQvCRL9O-141" value="" style="endArrow=none;html=1;rounded=0;strokeColor=#67AB9F;startArrow=blockThin;startFill=1;strokeWidth=2;" parent="aXy5RAAYiLXVPQvCRL9O-138" edge="1">
          <mxGeometry width="50" height="50" relative="1" as="geometry">
            <mxPoint x="30" y="40" as="sourcePoint" />
            <mxPoint x="30" as="targetPoint" />
          </mxGeometry>
        </mxCell>
        <mxCell id="aXy5RAAYiLXVPQvCRL9O-142" value="" style="endArrow=none;html=1;rounded=0;strokeColor=#67AB9F;strokeWidth=2;" parent="aXy5RAAYiLXVPQvCRL9O-138" edge="1">
          <mxGeometry width="50" height="50" relative="1" as="geometry">
            <mxPoint x="60" y="40" as="sourcePoint" />
            <mxPoint x="30" y="40" as="targetPoint" />
          </mxGeometry>
        </mxCell>
        <mxCell id="aXy5RAAYiLXVPQvCRL9O-143" value="" style="endArrow=none;html=1;rounded=0;strokeColor=#67AB9F;strokeWidth=2;" parent="aXy5RAAYiLXVPQvCRL9O-138" edge="1">
          <mxGeometry width="50" height="50" relative="1" as="geometry">
            <mxPoint x="60" y="40" as="sourcePoint" />
            <mxPoint x="60" as="targetPoint" />
          </mxGeometry>
        </mxCell>
        <mxCell id="aXy5RAAYiLXVPQvCRL9O-144" value="" style="group;strokeWidth=2;" parent="1" vertex="1" connectable="0">
          <mxGeometry x="220" y="260" width="100" height="40" as="geometry" />
        </mxCell>
        <mxCell id="aXy5RAAYiLXVPQvCRL9O-145" value="" style="endArrow=none;html=1;rounded=0;strokeColor=#FF0000;strokeWidth=2;" parent="aXy5RAAYiLXVPQvCRL9O-144" edge="1">
          <mxGeometry width="50" height="50" relative="1" as="geometry">
            <mxPoint y="40" as="sourcePoint" />
            <mxPoint as="targetPoint" />
          </mxGeometry>
        </mxCell>
        <mxCell id="aXy5RAAYiLXVPQvCRL9O-146" value="" style="endArrow=none;html=1;rounded=0;strokeColor=#FF0000;strokeWidth=2;" parent="aXy5RAAYiLXVPQvCRL9O-144" edge="1">
          <mxGeometry width="50" height="50" relative="1" as="geometry">
            <mxPoint x="50" as="sourcePoint" />
            <mxPoint as="targetPoint" />
          </mxGeometry>
        </mxCell>
        <mxCell id="aXy5RAAYiLXVPQvCRL9O-147" value="" style="endArrow=none;html=1;rounded=0;strokeColor=#FF0000;startArrow=blockThin;startFill=1;strokeWidth=2;" parent="aXy5RAAYiLXVPQvCRL9O-144" edge="1">
          <mxGeometry width="50" height="50" relative="1" as="geometry">
            <mxPoint x="50" y="40" as="sourcePoint" />
            <mxPoint x="50" as="targetPoint" />
          </mxGeometry>
        </mxCell>
        <mxCell id="aXy5RAAYiLXVPQvCRL9O-148" value="" style="endArrow=none;html=1;rounded=0;strokeColor=#FF0000;strokeWidth=2;" parent="aXy5RAAYiLXVPQvCRL9O-144" edge="1">
          <mxGeometry width="50" height="50" relative="1" as="geometry">
            <mxPoint x="100" y="40" as="sourcePoint" />
            <mxPoint x="50" y="40" as="targetPoint" />
          </mxGeometry>
        </mxCell>
        <mxCell id="aXy5RAAYiLXVPQvCRL9O-149" value="" style="endArrow=none;html=1;rounded=0;strokeColor=#FF0000;strokeWidth=2;" parent="aXy5RAAYiLXVPQvCRL9O-144" edge="1">
          <mxGeometry width="50" height="50" relative="1" as="geometry">
            <mxPoint x="100" y="40" as="sourcePoint" />
            <mxPoint x="100" as="targetPoint" />
          </mxGeometry>
        </mxCell>
        <mxCell id="aXy5RAAYiLXVPQvCRL9O-150" value="" style="group;strokeWidth=2;" parent="1" vertex="1" connectable="0">
          <mxGeometry x="320" y="260" width="100" height="40" as="geometry" />
        </mxCell>
        <mxCell id="aXy5RAAYiLXVPQvCRL9O-151" value="" style="endArrow=none;html=1;rounded=0;strokeColor=#FF0000;strokeWidth=2;" parent="aXy5RAAYiLXVPQvCRL9O-150" edge="1">
          <mxGeometry width="50" height="50" relative="1" as="geometry">
            <mxPoint y="40" as="sourcePoint" />
            <mxPoint as="targetPoint" />
          </mxGeometry>
        </mxCell>
        <mxCell id="aXy5RAAYiLXVPQvCRL9O-152" value="" style="endArrow=none;html=1;rounded=0;strokeColor=#FF0000;strokeWidth=2;" parent="aXy5RAAYiLXVPQvCRL9O-150" edge="1">
          <mxGeometry width="50" height="50" relative="1" as="geometry">
            <mxPoint x="50" as="sourcePoint" />
            <mxPoint as="targetPoint" />
          </mxGeometry>
        </mxCell>
        <mxCell id="aXy5RAAYiLXVPQvCRL9O-153" value="" style="endArrow=none;html=1;rounded=0;strokeColor=#FF0000;startArrow=blockThin;startFill=1;strokeWidth=2;" parent="aXy5RAAYiLXVPQvCRL9O-150" edge="1">
          <mxGeometry width="50" height="50" relative="1" as="geometry">
            <mxPoint x="50" y="40" as="sourcePoint" />
            <mxPoint x="50" as="targetPoint" />
          </mxGeometry>
        </mxCell>
        <mxCell id="aXy5RAAYiLXVPQvCRL9O-154" value="" style="endArrow=none;html=1;rounded=0;strokeColor=#FF0000;strokeWidth=2;" parent="aXy5RAAYiLXVPQvCRL9O-150" edge="1">
          <mxGeometry width="50" height="50" relative="1" as="geometry">
            <mxPoint x="100" y="40" as="sourcePoint" />
            <mxPoint x="50" y="40" as="targetPoint" />
          </mxGeometry>
        </mxCell>
        <mxCell id="aXy5RAAYiLXVPQvCRL9O-155" value="" style="endArrow=none;html=1;rounded=0;strokeColor=#FF0000;strokeWidth=2;" parent="aXy5RAAYiLXVPQvCRL9O-150" edge="1">
          <mxGeometry width="50" height="50" relative="1" as="geometry">
            <mxPoint x="100" y="40" as="sourcePoint" />
            <mxPoint x="100" as="targetPoint" />
          </mxGeometry>
        </mxCell>
        <mxCell id="aXy5RAAYiLXVPQvCRL9O-156" value="" style="group;strokeWidth=2;" parent="1" vertex="1" connectable="0">
          <mxGeometry x="420" y="260" width="60" height="40" as="geometry" />
        </mxCell>
        <mxCell id="aXy5RAAYiLXVPQvCRL9O-157" value="" style="endArrow=none;html=1;rounded=0;strokeColor=#67AB9F;strokeWidth=2;" parent="aXy5RAAYiLXVPQvCRL9O-156" edge="1">
          <mxGeometry width="50" height="50" relative="1" as="geometry">
            <mxPoint y="40" as="sourcePoint" />
            <mxPoint as="targetPoint" />
          </mxGeometry>
        </mxCell>
        <mxCell id="aXy5RAAYiLXVPQvCRL9O-158" value="" style="endArrow=none;html=1;rounded=0;strokeColor=#67AB9F;strokeWidth=2;" parent="aXy5RAAYiLXVPQvCRL9O-156" edge="1">
          <mxGeometry width="50" height="50" relative="1" as="geometry">
            <mxPoint x="30" as="sourcePoint" />
            <mxPoint as="targetPoint" />
          </mxGeometry>
        </mxCell>
        <mxCell id="aXy5RAAYiLXVPQvCRL9O-159" value="" style="endArrow=none;html=1;rounded=0;strokeColor=#67AB9F;startArrow=blockThin;startFill=1;strokeWidth=2;" parent="aXy5RAAYiLXVPQvCRL9O-156" edge="1">
          <mxGeometry width="50" height="50" relative="1" as="geometry">
            <mxPoint x="30" y="40" as="sourcePoint" />
            <mxPoint x="30" as="targetPoint" />
          </mxGeometry>
        </mxCell>
        <mxCell id="aXy5RAAYiLXVPQvCRL9O-160" value="" style="endArrow=none;html=1;rounded=0;strokeColor=#67AB9F;strokeWidth=2;" parent="aXy5RAAYiLXVPQvCRL9O-156" edge="1">
          <mxGeometry width="50" height="50" relative="1" as="geometry">
            <mxPoint x="60" y="40" as="sourcePoint" />
            <mxPoint x="30" y="40" as="targetPoint" />
          </mxGeometry>
        </mxCell>
        <mxCell id="aXy5RAAYiLXVPQvCRL9O-161" value="" style="endArrow=none;html=1;rounded=0;strokeColor=#67AB9F;strokeWidth=2;" parent="aXy5RAAYiLXVPQvCRL9O-156" edge="1">
          <mxGeometry width="50" height="50" relative="1" as="geometry">
            <mxPoint x="60" y="40" as="sourcePoint" />
            <mxPoint x="60" as="targetPoint" />
          </mxGeometry>
        </mxCell>
        <mxCell id="aXy5RAAYiLXVPQvCRL9O-162" value="" style="group;strokeWidth=2;" parent="1" vertex="1" connectable="0">
          <mxGeometry x="480" y="260" width="60" height="40" as="geometry" />
        </mxCell>
        <mxCell id="aXy5RAAYiLXVPQvCRL9O-163" value="" style="endArrow=none;html=1;rounded=0;strokeColor=#67AB9F;strokeWidth=2;" parent="aXy5RAAYiLXVPQvCRL9O-162" edge="1">
          <mxGeometry width="50" height="50" relative="1" as="geometry">
            <mxPoint y="40" as="sourcePoint" />
            <mxPoint as="targetPoint" />
          </mxGeometry>
        </mxCell>
        <mxCell id="aXy5RAAYiLXVPQvCRL9O-164" value="" style="endArrow=none;html=1;rounded=0;strokeColor=#67AB9F;strokeWidth=2;" parent="aXy5RAAYiLXVPQvCRL9O-162" edge="1">
          <mxGeometry width="50" height="50" relative="1" as="geometry">
            <mxPoint x="30" as="sourcePoint" />
            <mxPoint as="targetPoint" />
          </mxGeometry>
        </mxCell>
        <mxCell id="aXy5RAAYiLXVPQvCRL9O-165" value="" style="endArrow=none;html=1;rounded=0;strokeColor=#67AB9F;startArrow=blockThin;startFill=1;strokeWidth=2;" parent="aXy5RAAYiLXVPQvCRL9O-162" edge="1">
          <mxGeometry width="50" height="50" relative="1" as="geometry">
            <mxPoint x="30" y="40" as="sourcePoint" />
            <mxPoint x="30" as="targetPoint" />
          </mxGeometry>
        </mxCell>
        <mxCell id="aXy5RAAYiLXVPQvCRL9O-166" value="" style="endArrow=none;html=1;rounded=0;strokeColor=#67AB9F;strokeWidth=2;" parent="aXy5RAAYiLXVPQvCRL9O-162" edge="1">
          <mxGeometry width="50" height="50" relative="1" as="geometry">
            <mxPoint x="60" y="40" as="sourcePoint" />
            <mxPoint x="30" y="40" as="targetPoint" />
          </mxGeometry>
        </mxCell>
        <mxCell id="aXy5RAAYiLXVPQvCRL9O-167" value="" style="endArrow=none;html=1;rounded=0;strokeColor=#67AB9F;strokeWidth=2;" parent="aXy5RAAYiLXVPQvCRL9O-162" edge="1">
          <mxGeometry width="50" height="50" relative="1" as="geometry">
            <mxPoint x="60" y="40" as="sourcePoint" />
            <mxPoint x="60" as="targetPoint" />
          </mxGeometry>
        </mxCell>
        <mxCell id="aXy5RAAYiLXVPQvCRL9O-168" value="" style="group;strokeWidth=2;" parent="1" vertex="1" connectable="0">
          <mxGeometry x="540" y="260" width="100" height="40" as="geometry" />
        </mxCell>
        <mxCell id="aXy5RAAYiLXVPQvCRL9O-169" value="" style="endArrow=none;html=1;rounded=0;strokeColor=#FF0000;strokeWidth=2;" parent="aXy5RAAYiLXVPQvCRL9O-168" edge="1">
          <mxGeometry width="50" height="50" relative="1" as="geometry">
            <mxPoint y="40" as="sourcePoint" />
            <mxPoint as="targetPoint" />
          </mxGeometry>
        </mxCell>
        <mxCell id="aXy5RAAYiLXVPQvCRL9O-170" value="" style="endArrow=none;html=1;rounded=0;strokeColor=#FF0000;strokeWidth=2;" parent="aXy5RAAYiLXVPQvCRL9O-168" edge="1">
          <mxGeometry width="50" height="50" relative="1" as="geometry">
            <mxPoint x="50" as="sourcePoint" />
            <mxPoint as="targetPoint" />
          </mxGeometry>
        </mxCell>
        <mxCell id="aXy5RAAYiLXVPQvCRL9O-171" value="" style="endArrow=none;html=1;rounded=0;strokeColor=#FF0000;startArrow=blockThin;startFill=1;strokeWidth=2;" parent="aXy5RAAYiLXVPQvCRL9O-168" edge="1">
          <mxGeometry width="50" height="50" relative="1" as="geometry">
            <mxPoint x="50" y="40" as="sourcePoint" />
            <mxPoint x="50" as="targetPoint" />
          </mxGeometry>
        </mxCell>
        <mxCell id="aXy5RAAYiLXVPQvCRL9O-172" value="" style="endArrow=none;html=1;rounded=0;strokeColor=#FF0000;strokeWidth=2;" parent="aXy5RAAYiLXVPQvCRL9O-168" edge="1">
          <mxGeometry width="50" height="50" relative="1" as="geometry">
            <mxPoint x="100" y="40" as="sourcePoint" />
            <mxPoint x="50" y="40" as="targetPoint" />
          </mxGeometry>
        </mxCell>
        <mxCell id="aXy5RAAYiLXVPQvCRL9O-173" value="" style="endArrow=none;html=1;rounded=0;strokeColor=#FF0000;strokeWidth=2;" parent="aXy5RAAYiLXVPQvCRL9O-168" edge="1">
          <mxGeometry width="50" height="50" relative="1" as="geometry">
            <mxPoint x="100" y="40" as="sourcePoint" />
            <mxPoint x="100" as="targetPoint" />
          </mxGeometry>
        </mxCell>
        <mxCell id="aXy5RAAYiLXVPQvCRL9O-174" value="" style="group;strokeWidth=2;" parent="1" vertex="1" connectable="0">
          <mxGeometry x="640" y="260" width="100" height="40" as="geometry" />
        </mxCell>
        <mxCell id="aXy5RAAYiLXVPQvCRL9O-175" value="" style="endArrow=none;html=1;rounded=0;strokeColor=#FF0000;strokeWidth=2;" parent="aXy5RAAYiLXVPQvCRL9O-174" edge="1">
          <mxGeometry width="50" height="50" relative="1" as="geometry">
            <mxPoint y="40" as="sourcePoint" />
            <mxPoint as="targetPoint" />
          </mxGeometry>
        </mxCell>
        <mxCell id="aXy5RAAYiLXVPQvCRL9O-176" value="" style="endArrow=none;html=1;rounded=0;strokeColor=#FF0000;strokeWidth=2;" parent="aXy5RAAYiLXVPQvCRL9O-174" edge="1">
          <mxGeometry width="50" height="50" relative="1" as="geometry">
            <mxPoint x="50" as="sourcePoint" />
            <mxPoint as="targetPoint" />
          </mxGeometry>
        </mxCell>
        <mxCell id="aXy5RAAYiLXVPQvCRL9O-177" value="" style="endArrow=none;html=1;rounded=0;strokeColor=#FF0000;startArrow=blockThin;startFill=1;strokeWidth=2;" parent="aXy5RAAYiLXVPQvCRL9O-174" edge="1">
          <mxGeometry width="50" height="50" relative="1" as="geometry">
            <mxPoint x="50" y="40" as="sourcePoint" />
            <mxPoint x="50" as="targetPoint" />
          </mxGeometry>
        </mxCell>
        <mxCell id="aXy5RAAYiLXVPQvCRL9O-178" value="" style="endArrow=none;html=1;rounded=0;strokeColor=#FF0000;strokeWidth=2;" parent="aXy5RAAYiLXVPQvCRL9O-174" edge="1">
          <mxGeometry width="50" height="50" relative="1" as="geometry">
            <mxPoint x="100" y="40" as="sourcePoint" />
            <mxPoint x="50" y="40" as="targetPoint" />
          </mxGeometry>
        </mxCell>
        <mxCell id="aXy5RAAYiLXVPQvCRL9O-179" value="" style="endArrow=none;html=1;rounded=0;strokeColor=#FF0000;strokeWidth=2;" parent="aXy5RAAYiLXVPQvCRL9O-174" edge="1">
          <mxGeometry width="50" height="50" relative="1" as="geometry">
            <mxPoint x="100" y="40" as="sourcePoint" />
            <mxPoint x="100" as="targetPoint" />
          </mxGeometry>
        </mxCell>
        <mxCell id="aXy5RAAYiLXVPQvCRL9O-180" value="" style="group;strokeWidth=2;" parent="1" vertex="1" connectable="0">
          <mxGeometry x="740" y="260" width="60" height="40" as="geometry" />
        </mxCell>
        <mxCell id="aXy5RAAYiLXVPQvCRL9O-181" value="" style="endArrow=none;html=1;rounded=0;strokeColor=#67AB9F;strokeWidth=2;" parent="aXy5RAAYiLXVPQvCRL9O-180" edge="1">
          <mxGeometry width="50" height="50" relative="1" as="geometry">
            <mxPoint y="40" as="sourcePoint" />
            <mxPoint as="targetPoint" />
          </mxGeometry>
        </mxCell>
        <mxCell id="aXy5RAAYiLXVPQvCRL9O-182" value="" style="endArrow=none;html=1;rounded=0;strokeColor=#67AB9F;strokeWidth=2;" parent="aXy5RAAYiLXVPQvCRL9O-180" edge="1">
          <mxGeometry width="50" height="50" relative="1" as="geometry">
            <mxPoint x="30" as="sourcePoint" />
            <mxPoint as="targetPoint" />
          </mxGeometry>
        </mxCell>
        <mxCell id="aXy5RAAYiLXVPQvCRL9O-183" value="" style="endArrow=none;html=1;rounded=0;strokeColor=#67AB9F;startArrow=blockThin;startFill=1;strokeWidth=2;" parent="aXy5RAAYiLXVPQvCRL9O-180" edge="1">
          <mxGeometry width="50" height="50" relative="1" as="geometry">
            <mxPoint x="30" y="40" as="sourcePoint" />
            <mxPoint x="30" as="targetPoint" />
          </mxGeometry>
        </mxCell>
        <mxCell id="aXy5RAAYiLXVPQvCRL9O-184" value="" style="endArrow=none;html=1;rounded=0;strokeColor=#67AB9F;strokeWidth=2;" parent="aXy5RAAYiLXVPQvCRL9O-180" edge="1">
          <mxGeometry width="50" height="50" relative="1" as="geometry">
            <mxPoint x="60" y="40" as="sourcePoint" />
            <mxPoint x="30" y="40" as="targetPoint" />
          </mxGeometry>
        </mxCell>
        <mxCell id="aXy5RAAYiLXVPQvCRL9O-185" value="" style="endArrow=none;html=1;rounded=0;strokeColor=#67AB9F;strokeWidth=2;" parent="aXy5RAAYiLXVPQvCRL9O-180" edge="1">
          <mxGeometry width="50" height="50" relative="1" as="geometry">
            <mxPoint x="60" y="40" as="sourcePoint" />
            <mxPoint x="60" as="targetPoint" />
          </mxGeometry>
        </mxCell>
        <mxCell id="aXy5RAAYiLXVPQvCRL9O-186" value="" style="group;strokeWidth=2;" parent="1" vertex="1" connectable="0">
          <mxGeometry x="800" y="260" width="60" height="40" as="geometry" />
        </mxCell>
        <mxCell id="aXy5RAAYiLXVPQvCRL9O-187" value="" style="endArrow=none;html=1;rounded=0;strokeColor=#67AB9F;strokeWidth=2;" parent="aXy5RAAYiLXVPQvCRL9O-186" edge="1">
          <mxGeometry width="50" height="50" relative="1" as="geometry">
            <mxPoint y="40" as="sourcePoint" />
            <mxPoint as="targetPoint" />
          </mxGeometry>
        </mxCell>
        <mxCell id="aXy5RAAYiLXVPQvCRL9O-188" value="" style="endArrow=none;html=1;rounded=0;strokeColor=#67AB9F;strokeWidth=2;" parent="aXy5RAAYiLXVPQvCRL9O-186" edge="1">
          <mxGeometry width="50" height="50" relative="1" as="geometry">
            <mxPoint x="30" as="sourcePoint" />
            <mxPoint as="targetPoint" />
          </mxGeometry>
        </mxCell>
        <mxCell id="aXy5RAAYiLXVPQvCRL9O-189" value="" style="endArrow=none;html=1;rounded=0;strokeColor=#67AB9F;startArrow=blockThin;startFill=1;strokeWidth=2;" parent="aXy5RAAYiLXVPQvCRL9O-186" edge="1">
          <mxGeometry width="50" height="50" relative="1" as="geometry">
            <mxPoint x="30" y="40" as="sourcePoint" />
            <mxPoint x="30" as="targetPoint" />
          </mxGeometry>
        </mxCell>
        <mxCell id="aXy5RAAYiLXVPQvCRL9O-190" value="" style="endArrow=none;html=1;rounded=0;strokeColor=#67AB9F;strokeWidth=2;" parent="aXy5RAAYiLXVPQvCRL9O-186" edge="1">
          <mxGeometry width="50" height="50" relative="1" as="geometry">
            <mxPoint x="60" y="40" as="sourcePoint" />
            <mxPoint x="30" y="40" as="targetPoint" />
          </mxGeometry>
        </mxCell>
        <mxCell id="aXy5RAAYiLXVPQvCRL9O-191" value="" style="endArrow=none;html=1;rounded=0;strokeColor=#67AB9F;strokeWidth=2;" parent="aXy5RAAYiLXVPQvCRL9O-186" edge="1">
          <mxGeometry width="50" height="50" relative="1" as="geometry">
            <mxPoint x="60" y="40" as="sourcePoint" />
            <mxPoint x="60" as="targetPoint" />
          </mxGeometry>
        </mxCell>
        <mxCell id="aXy5RAAYiLXVPQvCRL9O-192" value="" style="group;strokeWidth=2;" parent="1" vertex="1" connectable="0">
          <mxGeometry x="860" y="260" width="100" height="40" as="geometry" />
        </mxCell>
        <mxCell id="aXy5RAAYiLXVPQvCRL9O-193" value="" style="endArrow=none;html=1;rounded=0;strokeColor=#FF0000;strokeWidth=2;" parent="aXy5RAAYiLXVPQvCRL9O-192" edge="1">
          <mxGeometry width="50" height="50" relative="1" as="geometry">
            <mxPoint y="40" as="sourcePoint" />
            <mxPoint as="targetPoint" />
          </mxGeometry>
        </mxCell>
        <mxCell id="aXy5RAAYiLXVPQvCRL9O-194" value="" style="endArrow=none;html=1;rounded=0;strokeColor=#FF0000;strokeWidth=2;" parent="aXy5RAAYiLXVPQvCRL9O-192" edge="1">
          <mxGeometry width="50" height="50" relative="1" as="geometry">
            <mxPoint x="50" as="sourcePoint" />
            <mxPoint as="targetPoint" />
          </mxGeometry>
        </mxCell>
        <mxCell id="aXy5RAAYiLXVPQvCRL9O-195" value="" style="endArrow=none;html=1;rounded=0;strokeColor=#FF0000;startArrow=blockThin;startFill=1;strokeWidth=2;" parent="aXy5RAAYiLXVPQvCRL9O-192" edge="1">
          <mxGeometry width="50" height="50" relative="1" as="geometry">
            <mxPoint x="50" y="40" as="sourcePoint" />
            <mxPoint x="50" as="targetPoint" />
          </mxGeometry>
        </mxCell>
        <mxCell id="aXy5RAAYiLXVPQvCRL9O-196" value="" style="endArrow=none;html=1;rounded=0;strokeColor=#FF0000;strokeWidth=2;" parent="aXy5RAAYiLXVPQvCRL9O-192" edge="1">
          <mxGeometry width="50" height="50" relative="1" as="geometry">
            <mxPoint x="100" y="40" as="sourcePoint" />
            <mxPoint x="50" y="40" as="targetPoint" />
          </mxGeometry>
        </mxCell>
        <mxCell id="aXy5RAAYiLXVPQvCRL9O-197" value="" style="endArrow=none;html=1;rounded=0;strokeColor=#FF0000;strokeWidth=2;" parent="aXy5RAAYiLXVPQvCRL9O-192" edge="1">
          <mxGeometry width="50" height="50" relative="1" as="geometry">
            <mxPoint x="100" y="40" as="sourcePoint" />
            <mxPoint x="100" as="targetPoint" />
          </mxGeometry>
        </mxCell>
        <mxCell id="aXy5RAAYiLXVPQvCRL9O-204" value="" style="group;strokeWidth=2;" parent="1" vertex="1" connectable="0">
          <mxGeometry x="960" y="260" width="100" height="40" as="geometry" />
        </mxCell>
        <mxCell id="aXy5RAAYiLXVPQvCRL9O-205" value="" style="endArrow=none;html=1;rounded=0;strokeColor=#FF0000;strokeWidth=2;" parent="aXy5RAAYiLXVPQvCRL9O-204" edge="1">
          <mxGeometry width="50" height="50" relative="1" as="geometry">
            <mxPoint y="40" as="sourcePoint" />
            <mxPoint as="targetPoint" />
          </mxGeometry>
        </mxCell>
        <mxCell id="aXy5RAAYiLXVPQvCRL9O-206" value="" style="endArrow=none;html=1;rounded=0;strokeColor=#FF0000;strokeWidth=2;" parent="aXy5RAAYiLXVPQvCRL9O-204" edge="1">
          <mxGeometry width="50" height="50" relative="1" as="geometry">
            <mxPoint x="50" as="sourcePoint" />
            <mxPoint as="targetPoint" />
          </mxGeometry>
        </mxCell>
        <mxCell id="aXy5RAAYiLXVPQvCRL9O-207" value="" style="endArrow=none;html=1;rounded=0;strokeColor=#FF0000;startArrow=blockThin;startFill=1;strokeWidth=2;" parent="aXy5RAAYiLXVPQvCRL9O-204" edge="1">
          <mxGeometry width="50" height="50" relative="1" as="geometry">
            <mxPoint x="50" y="40" as="sourcePoint" />
            <mxPoint x="50" as="targetPoint" />
          </mxGeometry>
        </mxCell>
        <mxCell id="aXy5RAAYiLXVPQvCRL9O-208" value="" style="endArrow=none;html=1;rounded=0;strokeColor=#FF0000;strokeWidth=2;" parent="aXy5RAAYiLXVPQvCRL9O-204" edge="1">
          <mxGeometry width="50" height="50" relative="1" as="geometry">
            <mxPoint x="100" y="40" as="sourcePoint" />
            <mxPoint x="50" y="40" as="targetPoint" />
          </mxGeometry>
        </mxCell>
        <mxCell id="aXy5RAAYiLXVPQvCRL9O-209" value="" style="endArrow=none;html=1;rounded=0;strokeColor=#FF0000;strokeWidth=2;" parent="aXy5RAAYiLXVPQvCRL9O-204" edge="1">
          <mxGeometry width="50" height="50" relative="1" as="geometry">
            <mxPoint x="100" y="40" as="sourcePoint" />
            <mxPoint x="100" as="targetPoint" />
          </mxGeometry>
        </mxCell>
        <mxCell id="aXy5RAAYiLXVPQvCRL9O-210" value="" style="group;strokeWidth=2;" parent="1" vertex="1" connectable="0">
          <mxGeometry x="1060" y="260" width="60" height="40" as="geometry" />
        </mxCell>
        <mxCell id="aXy5RAAYiLXVPQvCRL9O-211" value="" style="endArrow=none;html=1;rounded=0;strokeColor=#67AB9F;strokeWidth=2;" parent="aXy5RAAYiLXVPQvCRL9O-210" edge="1">
          <mxGeometry width="50" height="50" relative="1" as="geometry">
            <mxPoint y="40" as="sourcePoint" />
            <mxPoint as="targetPoint" />
          </mxGeometry>
        </mxCell>
        <mxCell id="aXy5RAAYiLXVPQvCRL9O-212" value="" style="endArrow=none;html=1;rounded=0;strokeColor=#67AB9F;strokeWidth=2;" parent="aXy5RAAYiLXVPQvCRL9O-210" edge="1">
          <mxGeometry width="50" height="50" relative="1" as="geometry">
            <mxPoint x="30" as="sourcePoint" />
            <mxPoint as="targetPoint" />
          </mxGeometry>
        </mxCell>
        <mxCell id="aXy5RAAYiLXVPQvCRL9O-213" value="" style="endArrow=none;html=1;rounded=0;strokeColor=#67AB9F;startArrow=blockThin;startFill=1;strokeWidth=2;" parent="aXy5RAAYiLXVPQvCRL9O-210" edge="1">
          <mxGeometry width="50" height="50" relative="1" as="geometry">
            <mxPoint x="30" y="40" as="sourcePoint" />
            <mxPoint x="30" as="targetPoint" />
          </mxGeometry>
        </mxCell>
        <mxCell id="aXy5RAAYiLXVPQvCRL9O-214" value="" style="endArrow=none;html=1;rounded=0;strokeColor=#67AB9F;strokeWidth=2;" parent="aXy5RAAYiLXVPQvCRL9O-210" edge="1">
          <mxGeometry width="50" height="50" relative="1" as="geometry">
            <mxPoint x="60" y="40" as="sourcePoint" />
            <mxPoint x="30" y="40" as="targetPoint" />
          </mxGeometry>
        </mxCell>
        <mxCell id="aXy5RAAYiLXVPQvCRL9O-215" value="" style="endArrow=none;html=1;rounded=0;strokeColor=#67AB9F;strokeWidth=2;" parent="aXy5RAAYiLXVPQvCRL9O-210" edge="1">
          <mxGeometry width="50" height="50" relative="1" as="geometry">
            <mxPoint x="60" y="40" as="sourcePoint" />
            <mxPoint x="60" as="targetPoint" />
          </mxGeometry>
        </mxCell>
        <mxCell id="aXy5RAAYiLXVPQvCRL9O-216" value="" style="group;strokeWidth=2;" parent="1" vertex="1" connectable="0">
          <mxGeometry x="1120" y="260" width="60" height="40" as="geometry" />
        </mxCell>
        <mxCell id="aXy5RAAYiLXVPQvCRL9O-217" value="" style="endArrow=none;html=1;rounded=0;strokeColor=#67AB9F;strokeWidth=2;" parent="aXy5RAAYiLXVPQvCRL9O-216" edge="1">
          <mxGeometry width="50" height="50" relative="1" as="geometry">
            <mxPoint y="40" as="sourcePoint" />
            <mxPoint as="targetPoint" />
          </mxGeometry>
        </mxCell>
        <mxCell id="aXy5RAAYiLXVPQvCRL9O-218" value="" style="endArrow=none;html=1;rounded=0;strokeColor=#67AB9F;strokeWidth=2;" parent="aXy5RAAYiLXVPQvCRL9O-216" edge="1">
          <mxGeometry width="50" height="50" relative="1" as="geometry">
            <mxPoint x="30" as="sourcePoint" />
            <mxPoint as="targetPoint" />
          </mxGeometry>
        </mxCell>
        <mxCell id="aXy5RAAYiLXVPQvCRL9O-219" value="" style="endArrow=none;html=1;rounded=0;strokeColor=#67AB9F;startArrow=blockThin;startFill=1;strokeWidth=2;" parent="aXy5RAAYiLXVPQvCRL9O-216" edge="1">
          <mxGeometry width="50" height="50" relative="1" as="geometry">
            <mxPoint x="30" y="40" as="sourcePoint" />
            <mxPoint x="30" as="targetPoint" />
          </mxGeometry>
        </mxCell>
        <mxCell id="aXy5RAAYiLXVPQvCRL9O-220" value="" style="endArrow=none;html=1;rounded=0;strokeColor=#67AB9F;strokeWidth=2;" parent="aXy5RAAYiLXVPQvCRL9O-216" edge="1">
          <mxGeometry width="50" height="50" relative="1" as="geometry">
            <mxPoint x="60" y="40" as="sourcePoint" />
            <mxPoint x="30" y="40" as="targetPoint" />
          </mxGeometry>
        </mxCell>
        <mxCell id="aXy5RAAYiLXVPQvCRL9O-221" value="" style="endArrow=none;html=1;rounded=0;strokeColor=#67AB9F;strokeWidth=2;" parent="aXy5RAAYiLXVPQvCRL9O-216" edge="1">
          <mxGeometry width="50" height="50" relative="1" as="geometry">
            <mxPoint x="60" y="40" as="sourcePoint" />
            <mxPoint x="60" as="targetPoint" />
          </mxGeometry>
        </mxCell>
        <mxCell id="aXy5RAAYiLXVPQvCRL9O-222" value="" style="endArrow=baseDash;startArrow=baseDash;html=1;rounded=0;endFill=0;startFill=0;strokeWidth=2;strokeColor=#7EA6E0;" parent="1" edge="1">
          <mxGeometry width="50" height="50" relative="1" as="geometry">
            <mxPoint x="760" y="219.71" as="sourcePoint" />
            <mxPoint x="800" y="219.71" as="targetPoint" />
          </mxGeometry>
        </mxCell>
        <mxCell id="aXy5RAAYiLXVPQvCRL9O-223" value="" style="endArrow=baseDash;startArrow=baseDash;html=1;rounded=0;endFill=0;startFill=0;strokeWidth=2;strokeColor=#7EA6E0;" parent="1" edge="1">
          <mxGeometry width="50" height="50" relative="1" as="geometry">
            <mxPoint x="840" y="219.76000000000002" as="sourcePoint" />
            <mxPoint x="860" y="220" as="targetPoint" />
          </mxGeometry>
        </mxCell>
        <mxCell id="aXy5RAAYiLXVPQvCRL9O-224" value="" style="endArrow=baseDash;startArrow=baseDash;html=1;rounded=0;endFill=0;startFill=0;strokeWidth=2;strokeColor=#7EA6E0;" parent="1" edge="1">
          <mxGeometry width="50" height="50" relative="1" as="geometry">
            <mxPoint x="920" y="219.76000000000002" as="sourcePoint" />
            <mxPoint x="960" y="219.76" as="targetPoint" />
          </mxGeometry>
        </mxCell>
        <mxCell id="aXy5RAAYiLXVPQvCRL9O-225" value="" style="endArrow=baseDash;startArrow=baseDash;html=1;rounded=0;endFill=0;startFill=0;strokeWidth=2;strokeColor=#7EA6E0;" parent="1" edge="1">
          <mxGeometry width="50" height="50" relative="1" as="geometry">
            <mxPoint x="1000" y="219.76000000000002" as="sourcePoint" />
            <mxPoint x="1060" y="219.76" as="targetPoint" />
          </mxGeometry>
        </mxCell>
        <mxCell id="aXy5RAAYiLXVPQvCRL9O-226" value="&lt;font color=&quot;#7ea6e0&quot; size=&quot;1&quot;&gt;&lt;b style=&quot;font-size: 14px;&quot;&gt;4&lt;/b&gt;&lt;/font&gt;" style="text;html=1;align=center;verticalAlign=middle;whiteSpace=wrap;rounded=0;strokeWidth=2;" parent="1" vertex="1">
          <mxGeometry x="750" y="190" width="60" height="30" as="geometry" />
        </mxCell>
        <mxCell id="aXy5RAAYiLXVPQvCRL9O-227" value="&lt;font color=&quot;#7ea6e0&quot; size=&quot;1&quot;&gt;&lt;b style=&quot;font-size: 14px;&quot;&gt;2&lt;/b&gt;&lt;/font&gt;" style="text;html=1;align=center;verticalAlign=middle;whiteSpace=wrap;rounded=0;strokeWidth=2;" parent="1" vertex="1">
          <mxGeometry x="820" y="190" width="60" height="30" as="geometry" />
        </mxCell>
        <mxCell id="aXy5RAAYiLXVPQvCRL9O-228" value="&lt;font color=&quot;#7ea6e0&quot; size=&quot;1&quot;&gt;&lt;b style=&quot;font-size: 14px;&quot;&gt;4&lt;/b&gt;&lt;/font&gt;" style="text;html=1;align=center;verticalAlign=middle;whiteSpace=wrap;rounded=0;strokeWidth=2;" parent="1" vertex="1">
          <mxGeometry x="910" y="190" width="60" height="30" as="geometry" />
        </mxCell>
        <mxCell id="aXy5RAAYiLXVPQvCRL9O-229" value="&lt;font color=&quot;#7ea6e0&quot; size=&quot;1&quot;&gt;&lt;b style=&quot;font-size: 14px;&quot;&gt;6&lt;/b&gt;&lt;/font&gt;" style="text;html=1;align=center;verticalAlign=middle;whiteSpace=wrap;rounded=0;strokeWidth=2;" parent="1" vertex="1">
          <mxGeometry x="990" y="190" width="60" height="30" as="geometry" />
        </mxCell>
        <mxCell id="aXy5RAAYiLXVPQvCRL9O-230" value="&lt;font color=&quot;#7ea6e0&quot; size=&quot;1&quot;&gt;&lt;b style=&quot;font-size: 14px;&quot;&gt;djpp=6-2=4&lt;/b&gt;&lt;/font&gt;" style="text;html=1;align=center;verticalAlign=middle;whiteSpace=wrap;rounded=0;strokeWidth=2;" parent="1" vertex="1">
          <mxGeometry x="850" y="160" width="90" height="30" as="geometry" />
        </mxCell>
        <mxCell id="aXy5RAAYiLXVPQvCRL9O-231" value="&lt;font color=&quot;#ff0000&quot; size=&quot;1&quot;&gt;&lt;b style=&quot;font-size: 14px;&quot;&gt;fnorm-fbb&lt;/b&gt;&lt;/font&gt;" style="text;html=1;align=center;verticalAlign=middle;whiteSpace=wrap;rounded=0;strokeWidth=2;" parent="1" vertex="1">
          <mxGeometry x="260" y="35" width="90" height="30" as="geometry" />
        </mxCell>
        <mxCell id="aXy5RAAYiLXVPQvCRL9O-232" value="&lt;font color=&quot;#67ab9f&quot; size=&quot;1&quot;&gt;&lt;b style=&quot;font-size: 14px;&quot;&gt;fnorm+fbb&lt;/b&gt;&lt;/font&gt;" style="text;html=1;align=center;verticalAlign=middle;whiteSpace=wrap;rounded=0;strokeWidth=2;" parent="1" vertex="1">
          <mxGeometry x="260" y="85" width="90" height="30" as="geometry" />
        </mxCell>
        <mxCell id="bMJqGPLRnC7xYN4EFSyi-3" value="" style="endArrow=baseDash;startArrow=baseDash;html=1;rounded=0;endFill=0;startFill=0;strokeWidth=2;strokeColor=#999999;dashed=1;" edge="1" parent="1">
          <mxGeometry width="50" height="50" relative="1" as="geometry">
            <mxPoint x="220" y="90.00000000000003" as="sourcePoint" />
            <mxPoint x="240" y="90" as="targetPoint" />
          </mxGeometry>
        </mxCell>
        <mxCell id="bMJqGPLRnC7xYN4EFSyi-5" value="&lt;font color=&quot;#999999&quot; size=&quot;1&quot;&gt;&lt;b style=&quot;font-size: 14px;&quot;&gt;2&lt;/b&gt;&lt;/font&gt;" style="text;html=1;align=center;verticalAlign=middle;whiteSpace=wrap;rounded=0;strokeWidth=2;" vertex="1" parent="1">
          <mxGeometry x="220" y="65" width="20" height="30" as="geometry" />
        </mxCell>
      </root>
    </mxGraphModel>
  </diagram>
</mxfile>
